<svg width="500" height="500" xmlns="http://www.w3.org/2000/svg">

 <g>
  <title>Layer 1</title>
  <rect stroke=" rgb(0, 0, 0)" x="47" id="svg_1" height="401.95799" width="399.44002" y="26.92401"/>
  <g id="svg4078">
   <g transform="matrix(1, 0, 0, 1, -238.355164, -419.290741)" id="layer1">
    <path fill=" color(srgb-linear 1 1 1)" stroke-dashoffset=" 0px" stroke-dasharray=" none" stroke-miterlimit="4" stroke-linejoin=" round" stroke-linecap=" round" stroke-width="2" stroke=" none" id="path4050" d="m469.33929,451.61679l-8.125,46.28131l0.03128,0.03098c-9.93158,1.6228 -19.5405,4.22382 -28.71878,7.6875l0,-0.03098l-30.15622,-36.03122l-28.34378,16.375l16.09378,44.125l0.06241,0.03101c-7.6842,6.30762 -14.72708,13.37543 -21.03119,21.06262l-0.03122,-0.09399l-44.125,-16.09381l-16.375,28.34381l36.03122,30.1875c-3.45801,9.17065 -6.0358,18.7652 -7.65622,28.6875l-0.03128,-0.03101l-46.28131,8.125l0,32.75l46.28131,8.125l0.03128,-0.03101c1.6203,9.9223 4.19821,19.51678 7.65622,28.6875l-36.03122,30.1875l16.375,28.34369l44.125,-16.09369l0.03122,-0.09399c6.30411,7.68695 13.34689,14.755 21.03119,21.06238l-0.06241,0.03101l-16.09378,44.125l28.34378,16.375l30.15622,-36.03088l0,-0.03125c9.17828,3.46375 18.7872,6.06476 28.71878,7.6875l-0.03128,0.03101l8.125,46.28125l32.71869,0l8.125,-46.28125l-0.03119,-0.03101c9.92957,-1.61835 19.54132,-4.19769 28.71881,-7.65625l30.18738,36.03125l28.34381,-16.375l-16.125,-44.125c7.66687,-6.29144 14.7063,-13.33496 21,-21l44.15619,16.09375l16.34381,-28.34375l-36,-30.1875c3.4588,-9.17188 6.06677,-18.76379 7.6875,-28.6875l46.28131,-8.09369l0,-32.75l-46.28131,-8.125c-1.62103,-9.91309 -4.23218,-19.49365 -7.6875,-28.65631l36,-30.1875l-16.34381,-28.34375l-44.15619,16.09375c-6.29382,-7.66516 -13.33289,-14.7085 -21,-21l16.125,-44.12497l-28.34381,-16.375l-30.18738,36.03119c-9.17749,-3.45828 -18.78925,-6.03778 -28.71881,-7.65619l0.03119,-0.03101l-8.125,-46.28128l-32.71869,0l0,-0.00021zm16.375,79.68747c63.71002,0 115.375,51.63373 115.375,115.34381c0,63.71002 -51.66498,115.34369 -115.375,115.34369c-63.70999,0 -115.34369,-51.63367 -115.34369,-115.34369c0,-63.71008 51.6337,-115.34381 115.34369,-115.34381z"/>
   </g>
  </g>
 </g>
</svg>